CD_DA
CD_TEXT { LANGUAGE_MAP { 0:EN }
    LANGUAGE 0 {
        TITLE "Transmissions"
        PERFORMER "Juno Reactor"
        DISC_ID "7A0F7509"
}}

//Track 1
TRACK AUDIO
    CD_TEXT { LANGUAGE 0 {
        TITLE "High Energy Protons"
        PERFORMER "Juno Reactor"
    }}
    PREGAP 00:00:32
    AUDIOFILE "Juno Reactor - Transmissions - 01 - High Energy Protons.wav" 00:00:00 06:32:52

//Track 2
TRACK AUDIO
    CD_TEXT { LANGUAGE 0 {
        TITLE "The Heavens"
        PERFORMER "Juno Reactor"
    }}
    AUDIOFILE "Juno Reactor - Transmissions - 01 - High Energy Protons.wav" 06:32:52
    START
    AUDIOFILE "Juno Reactor - Transmissions - 02 - The Heavens.wav" 00:00:00 06:26:60

//Track 3
TRACK AUDIO
    CD_TEXT { LANGUAGE 0 {
        TITLE "Luna-Tic"
        PERFORMER "Juno Reactor"
    }}
    AUDIOFILE "Juno Reactor - Transmissions - 02 - The Heavens.wav" 06:26:60
    START
    AUDIOFILE "Juno Reactor - Transmissions - 03 - Luna-Tic.wav" 00:00:00 09:01:02

//Track 4
TRACK AUDIO
    CD_TEXT { LANGUAGE 0 {
        TITLE "Contact"
        PERFORMER "Juno Reactor"
    }}
    AUDIOFILE "Juno Reactor - Transmissions - 03 - Luna-Tic.wav" 09:01:02
    START
    AUDIOFILE "Juno Reactor - Transmissions - 04 - Contact.wav" 00:00:00 05:53:17

//Track 5
TRACK AUDIO
    CD_TEXT { LANGUAGE 0 {
        TITLE "Acid Moon"
        PERFORMER "Juno Reactor"
    }}
    AUDIOFILE "Juno Reactor - Transmissions - 04 - Contact.wav" 05:53:17
    START
    AUDIOFILE "Juno Reactor - Transmissions - 05 - Acid Moon.wav" 00:00:00 08:38:44

//Track 6
TRACK AUDIO
    CD_TEXT { LANGUAGE 0 {
        TITLE "10,000 Miles"
        PERFORMER "Juno Reactor"
    }}
    AUDIOFILE "Juno Reactor - Transmissions - 05 - Acid Moon.wav" 08:38:44
    START
    AUDIOFILE "Juno Reactor - Transmissions - 06 - 10,000 Miles.wav" 00:00:00 05:55:10

//Track 7
TRACK AUDIO
    CD_TEXT { LANGUAGE 0 {
        TITLE "Laughing Gas"
        PERFORMER "Juno Reactor"
    }}
    AUDIOFILE "Juno Reactor - Transmissions - 06 - 10,000 Miles.wav" 05:55:10
    START
    AUDIOFILE "Juno Reactor - Transmissions - 07 - Laughing Gas.wav" 00:00:00 08:04:64

//Track 8
TRACK AUDIO
    CD_TEXT { LANGUAGE 0 {
        TITLE "Man to Ray"
        PERFORMER "Juno Reactor"
    }}
    AUDIOFILE "Juno Reactor - Transmissions - 07 - Laughing Gas.wav" 08:04:64
    START
    AUDIOFILE "Juno Reactor - Transmissions - 08 - Man to Ray.wav" 00:00:00 06:43:32

//Track 9
TRACK AUDIO
    CD_TEXT { LANGUAGE 0 {
        TITLE "Landing"
        PERFORMER "Juno Reactor"
    }}
    AUDIOFILE "Juno Reactor - Transmissions - 08 - Man to Ray.wav" 06:43:32
    START
    AUDIOFILE "Juno Reactor - Transmissions - 09 - Landing.wav" 00:00:00